<mxfile host="www.draw.io" modified="2019-12-01T02:43:32.242Z" agent="Mozilla/5.0 (Macintosh; Intel Mac OS X 10_13_6) AppleWebKit/537.36 (KHTML, like Gecko) Chrome/78.0.3904.108 Safari/537.36" etag="9LQNnF8PG_4AkBkYG8aR" version="12.3.3" type="github" pages="1">
  <diagram id="azSfM4tmFGMGus1xtj8e" name="Page-1">
    <mxGraphModel dx="913" dy="621" grid="1" gridSize="10" guides="1" tooltips="1" connect="1" arrows="1" fold="1" page="1" pageScale="1" pageWidth="827" pageHeight="1169" math="0" shadow="0">
      <root>
        <mxCell id="0"/>
        <mxCell id="1" parent="0"/>
        <mxCell id="C2vW1ZyLFT_pk_kxMwMD-1" value="Project manager&lt;br&gt;Zhong Feng" style="rounded=1;whiteSpace=wrap;html=1;fontFamily=Times New Roman;fontStyle=1" vertex="1" parent="1">
          <mxGeometry x="101" y="270" width="120" height="60" as="geometry"/>
        </mxCell>
        <mxCell id="C2vW1ZyLFT_pk_kxMwMD-2" value="R&amp;amp;D Team Leader&lt;br&gt;Xiao Xingpeng" style="rounded=1;whiteSpace=wrap;html=1;fontFamily=Times New Roman;fontStyle=1" vertex="1" parent="1">
          <mxGeometry x="320" y="20" width="160" height="60" as="geometry"/>
        </mxCell>
        <mxCell id="C2vW1ZyLFT_pk_kxMwMD-3" value="AI Algorithm Engineer&lt;br&gt;Lian Jie" style="rounded=1;whiteSpace=wrap;html=1;fontFamily=Times New Roman;fontStyle=1" vertex="1" parent="1">
          <mxGeometry x="320" y="120" width="160" height="60" as="geometry"/>
        </mxCell>
        <mxCell id="C2vW1ZyLFT_pk_kxMwMD-4" value="Core Module Implementation&lt;br&gt;Huo Mingcang&lt;br&gt;" style="rounded=1;whiteSpace=wrap;html=1;fontFamily=Times New Roman;fontStyle=1" vertex="1" parent="1">
          <mxGeometry x="320" y="220" width="160" height="60" as="geometry"/>
        </mxCell>
        <mxCell id="C2vW1ZyLFT_pk_kxMwMD-5" value="App System Implementation&lt;br&gt;Xang Xuan" style="rounded=1;whiteSpace=wrap;html=1;fontFamily=Times New Roman;fontStyle=1" vertex="1" parent="1">
          <mxGeometry x="320" y="320" width="160" height="60" as="geometry"/>
        </mxCell>
        <mxCell id="C2vW1ZyLFT_pk_kxMwMD-6" value="Testing Manager&lt;br&gt;Zhong Feng" style="rounded=1;whiteSpace=wrap;html=1;fontFamily=Times New Roman;fontStyle=1" vertex="1" parent="1">
          <mxGeometry x="320" y="420" width="160" height="60" as="geometry"/>
        </mxCell>
        <mxCell id="C2vW1ZyLFT_pk_kxMwMD-7" value="Client Communication&lt;br&gt;He Jianpeng" style="rounded=1;whiteSpace=wrap;html=1;fontFamily=Times New Roman;fontStyle=1" vertex="1" parent="1">
          <mxGeometry x="320" y="520" width="160" height="60" as="geometry"/>
        </mxCell>
        <mxCell id="C2vW1ZyLFT_pk_kxMwMD-8" value="" style="endArrow=classic;html=1;exitX=1;exitY=0.5;exitDx=0;exitDy=0;fontFamily=Times New Roman;fontStyle=1" edge="1" parent="1" source="C2vW1ZyLFT_pk_kxMwMD-1">
          <mxGeometry width="50" height="50" relative="1" as="geometry">
            <mxPoint x="221" y="340" as="sourcePoint"/>
            <mxPoint x="261" y="300" as="targetPoint"/>
          </mxGeometry>
        </mxCell>
        <mxCell id="C2vW1ZyLFT_pk_kxMwMD-9" value="" style="endArrow=none;html=1;fontFamily=Times New Roman;fontStyle=1" edge="1" parent="1">
          <mxGeometry width="50" height="50" relative="1" as="geometry">
            <mxPoint x="260" y="550" as="sourcePoint"/>
            <mxPoint x="260" y="50" as="targetPoint"/>
          </mxGeometry>
        </mxCell>
        <mxCell id="C2vW1ZyLFT_pk_kxMwMD-10" value="" style="endArrow=classic;html=1;fontFamily=Times New Roman;fontStyle=1" edge="1" parent="1">
          <mxGeometry width="50" height="50" relative="1" as="geometry">
            <mxPoint x="260" y="50" as="sourcePoint"/>
            <mxPoint x="320" y="50" as="targetPoint"/>
          </mxGeometry>
        </mxCell>
        <mxCell id="C2vW1ZyLFT_pk_kxMwMD-11" value="" style="endArrow=classic;html=1;fontFamily=Times New Roman;fontStyle=1" edge="1" parent="1">
          <mxGeometry width="50" height="50" relative="1" as="geometry">
            <mxPoint x="260" y="149.5" as="sourcePoint"/>
            <mxPoint x="320" y="149.5" as="targetPoint"/>
          </mxGeometry>
        </mxCell>
        <mxCell id="C2vW1ZyLFT_pk_kxMwMD-12" value="" style="endArrow=classic;html=1;fontFamily=Times New Roman;fontStyle=1" edge="1" parent="1">
          <mxGeometry width="50" height="50" relative="1" as="geometry">
            <mxPoint x="260" y="249.5" as="sourcePoint"/>
            <mxPoint x="320" y="249.5" as="targetPoint"/>
          </mxGeometry>
        </mxCell>
        <mxCell id="C2vW1ZyLFT_pk_kxMwMD-13" value="" style="endArrow=classic;html=1;fontFamily=Times New Roman;fontStyle=1" edge="1" parent="1">
          <mxGeometry width="50" height="50" relative="1" as="geometry">
            <mxPoint x="260" y="349.5" as="sourcePoint"/>
            <mxPoint x="320" y="349.5" as="targetPoint"/>
          </mxGeometry>
        </mxCell>
        <mxCell id="C2vW1ZyLFT_pk_kxMwMD-14" value="" style="endArrow=classic;html=1;fontFamily=Times New Roman;fontStyle=1" edge="1" parent="1">
          <mxGeometry width="50" height="50" relative="1" as="geometry">
            <mxPoint x="260" y="448" as="sourcePoint"/>
            <mxPoint x="320" y="448" as="targetPoint"/>
          </mxGeometry>
        </mxCell>
        <mxCell id="C2vW1ZyLFT_pk_kxMwMD-15" value="" style="endArrow=classic;html=1;fontFamily=Times New Roman;fontStyle=1" edge="1" parent="1">
          <mxGeometry width="50" height="50" relative="1" as="geometry">
            <mxPoint x="260" y="549.5" as="sourcePoint"/>
            <mxPoint x="320" y="549.5" as="targetPoint"/>
          </mxGeometry>
        </mxCell>
      </root>
    </mxGraphModel>
  </diagram>
</mxfile>
